<svg width="12" height="11" viewBox="0 0 12 11" fill="none" xmlns="http://www.w3.org/2000/svg">
<path d="M10.3223 1.17222H9.02131V0.307373C9.02131 0.146443 8.86691 -0.00711577 8.68565 0.000255072C8.59716 0.00182756 8.51278 0.0346894 8.4502 0.0919479C8.38762 0.149206 8.3517 0.226413 8.34999 0.307373V1.17222H3.65069V0.307373C3.65069 0.146443 3.49628 -0.00711577 3.31502 0.000255072C3.22654 0.00182756 3.14215 0.0346894 3.07957 0.0919479C3.01699 0.149206 2.98108 0.226413 2.97936 0.307373V1.17222H1.67832C1.23337 1.17271 0.806789 1.33465 0.492158 1.62252C0.177527 1.91039 0.000532987 2.30069 0 2.70781V9.46441C0 10.3114 0.753231 11 1.67832 11H10.3217C11.2474 11 12 10.3114 12 9.46441V2.70781C12 2.30065 11.8233 1.91016 11.5087 1.6222C11.1941 1.33424 10.7674 1.17238 10.3223 1.17222ZM1.67832 1.78645H2.97936V2.15008C2.97936 2.31101 3.13376 2.46457 3.31502 2.4572C3.49695 2.44983 3.65069 2.32207 3.65069 2.15008V1.78645H8.34999V2.15008C8.34999 2.31101 8.50439 2.46457 8.68565 2.4572C8.86758 2.44983 9.02131 2.32207 9.02131 2.15008V1.78645H10.3217C10.8769 1.78645 11.3287 2.19984 11.3287 2.70781V3.68076H0.671328V2.70781C0.671328 2.19984 1.12313 1.78645 1.67832 1.78645ZM10.3223 10.3858H1.67832C1.12313 10.3858 0.671328 9.97238 0.671328 9.46441V4.295H11.3287V9.46441C11.3287 9.70866 11.2227 9.94292 11.034 10.1157C10.8453 10.2885 10.5893 10.3856 10.3223 10.3858Z" fill="#CACACA"/>
</svg>
