<svg width="22" height="18" viewBox="0 0 22 18" fill="none" xmlns="http://www.w3.org/2000/svg">
<path d="M20.3331 18H1.66029C1.21996 18 0.797654 17.8205 0.486289 17.501C0.174923 17.1815 0 16.7482 0 16.2963V5.91522C0 5.46337 0.174923 5.03004 0.486289 4.71053C0.797654 4.39103 1.21996 4.21154 1.66029 4.21154H4.60233C4.7407 4.21214 4.87427 4.15953 4.97671 4.06409C5.07916 3.96864 5.14304 3.83728 5.15577 3.69589L5.3395 1.65148C5.34994 1.2078 5.52982 0.786079 5.84037 0.477183C6.15092 0.168286 6.5673 -0.00306633 6.9998 4.15495e-05H15.0024C15.4428 4.15495e-05 15.8651 0.179536 16.1764 0.499038C16.4878 0.81854 16.6627 1.25188 16.6627 1.70372L16.8442 3.69816C16.857 3.83955 16.9208 3.97091 17.0233 4.06636C17.1257 4.1618 17.2593 4.21441 17.3977 4.21381H20.3397C20.78 4.21381 21.2023 4.3933 21.5137 4.71281C21.8251 5.03231 22 5.46565 22 5.91749V16.2986C21.9997 16.5227 21.9563 16.7445 21.8723 16.9514C21.7884 17.1583 21.6654 17.3462 21.5106 17.5042C21.3557 17.6623 21.172 17.7874 20.97 17.8725C20.7679 17.9576 20.5515 18.0009 20.3331 18ZM1.66029 5.34732C1.51351 5.34732 1.37275 5.40716 1.26896 5.51366C1.16517 5.62016 1.10686 5.7646 1.10686 5.91522V16.2963C1.10686 16.4469 1.16517 16.5914 1.26896 16.6979C1.37275 16.8044 1.51351 16.8642 1.66029 16.8642H20.3331C20.4798 16.8642 20.6206 16.8044 20.7244 16.6979C20.8282 16.5914 20.8865 16.4469 20.8865 16.2963V5.91522C20.8865 5.7646 20.8282 5.62016 20.7244 5.51366C20.6206 5.40716 20.4798 5.34732 20.3331 5.34732H17.391C16.9771 5.34743 16.578 5.18884 16.2721 4.90266C15.9662 4.61649 15.7755 4.22336 15.7374 3.80038L15.5536 1.75597C15.5583 1.67766 15.5475 1.59919 15.522 1.52524C15.4964 1.45129 15.4567 1.38336 15.405 1.3255C15.3534 1.26764 15.291 1.22104 15.2214 1.18845C15.1519 1.15586 15.0766 1.13797 15.0002 1.13583H6.99537C6.84859 1.13583 6.70782 1.19566 6.60404 1.30216C6.50025 1.40866 6.44194 1.55311 6.44194 1.70372L6.25599 3.80038C6.2179 4.22336 6.0272 4.61649 5.72128 4.90266C5.41537 5.18884 5.0163 5.34743 4.60233 5.34732H1.66029Z" fill="#CACACA"/>
<path d="M10.9967 14.9981C10.121 14.9981 9.265 14.7317 8.53691 14.2325C7.80882 13.7333 7.24134 13.0237 6.90624 12.1936C6.57113 11.3634 6.48345 10.4499 6.65429 9.56866C6.82512 8.68737 7.2468 7.87786 7.86599 7.24249C8.48518 6.60712 9.27407 6.17443 10.1329 5.99913C10.9918 5.82383 11.882 5.9138 12.691 6.25766C13.5 6.60152 14.1915 7.18383 14.678 7.93095C15.1645 8.67806 15.4241 9.55643 15.4241 10.455C15.4241 11.6599 14.9577 12.8155 14.1273 13.6675C13.297 14.5195 12.1709 14.9981 10.9967 14.9981ZM10.9967 7.04762C10.3399 7.04762 9.69791 7.24746 9.15185 7.62187C8.60578 7.99627 8.18017 8.52843 7.92884 9.15104C7.67752 9.77366 7.61176 10.4588 7.73988 11.1197C7.86801 11.7807 8.18426 12.3878 8.64866 12.8644C9.11305 13.3409 9.70472 13.6654 10.3489 13.7969C10.993 13.9283 11.6606 13.8609 12.2674 13.603C12.8742 13.3451 13.3928 12.9083 13.7576 12.348C14.1225 11.7877 14.3173 11.1289 14.3173 10.455C14.3173 9.55129 13.9674 8.68462 13.3447 8.04562C12.7219 7.40661 11.8773 7.04762 10.9967 7.04762Z" fill="#CACACA"/>
</svg>
